<svg width="1374" height="1379" viewBox="0 0 1374 1379" fill="none" xmlns="http://www.w3.org/2000/svg">
<g clip-path="url(#clip0_205_2)">
<path d="M1201.63 788.076C1202.41 777.407 1196.15 769.883 1183.69 766.571C1181.04 765.866 1178.36 765.31 1175.71 764.647C1088.31 743.404 1000.92 722.203 913.569 700.831C910.098 699.974 905.013 701.156 903.699 695.861C954.393 672.474 1004.9 649.241 1055.36 625.88C1067.04 620.456 1071.73 612.573 1069.83 602.797C1067.83 592.725 1061.07 587.769 1047.74 586.99C1005.94 584.59 964.134 582.275 922.33 579.917C897.59 578.528 872.87 577.118 846.785 575.611C846.657 575.614 846.55 575.595 846.422 575.598C846.463 575.512 846.525 575.447 846.566 575.361C848.062 572.791 848.754 571.369 849.663 570.113C874.545 535.734 899.535 501.417 924.372 466.954C958.604 419.472 992.685 371.887 1026.98 324.425C1033.65 315.176 1039.83 306.044 1036.46 293.831L1026.03 283.869C1014.24 281.393 1005.38 287.136 996.57 293.921C982.482 304.748 968.065 315.177 953.737 325.732C897.531 367.054 841.325 408.376 785.097 449.677C770.683 460.234 756.246 470.728 740.951 481.86C740.847 481.968 740.679 482.058 740.553 482.146C740.528 481.997 740.503 481.806 740.478 481.657C740.046 478.621 739.685 476.777 739.514 474.906C735.379 438.428 731.223 401.929 727.258 365.447C726.265 356.459 722.357 349.52 713.771 346.651C705.164 343.761 697.494 346.473 691.799 353.613C686.043 360.86 680.547 368.314 674.943 375.665C656.268 400.187 637.615 424.688 618.258 450.142C616.46 446.008 615.072 443.058 613.895 440.018C588.915 375.009 563.956 309.979 538.913 244.993C534.293 232.958 526.661 228.043 516.477 229.812C505.911 231.632 500.718 238.334 500.035 251.343C498.316 284.229 496.639 317.156 494.92 350.042C492.482 396.278 490.024 442.537 487.558 489.37C452.332 476.551 417.709 464.016 383.146 451.33C373.867 447.923 364.92 446.958 357.516 454.798C350.423 462.268 351.684 470.844 355.165 479.667C364.912 504.428 374.49 529.278 384.067 554.128C388.778 566.374 393.361 578.666 398.233 591.44C358.314 596.047 319.479 600.564 280.642 604.954C271.4 605.998 264.052 609.768 261.002 618.934C257.893 628.293 262.04 635.46 269.185 641.452C286.035 655.505 302.803 669.687 319.551 683.892C331.107 693.722 342.602 703.659 354.943 714.238C355.203 714.445 355.421 714.653 355.681 714.86C355.342 714.953 355.046 715.045 354.75 715.137C350.413 716.409 347.408 717.287 344.382 718.145C262.685 741.077 181.008 763.986 99.3337 786.981C94.4446 788.35 89.4513 789.829 84.9024 792.107C76.9425 796.124 74.1224 803.219 75.3418 811.839C76.5127 820.204 81.4931 825.628 89.6874 827.206C95.742 828.366 101.964 828.478 108.128 828.826C200.63 834.082 293.152 839.316 385.671 844.422C391.878 844.769 394.243 844.821 390.215 852.178C359.227 908.339 328.715 964.788 298.18 1021.22C291.13 1034.27 291.991 1042.13 300.559 1049.81C308.321 1056.72 317.18 1056.61 328.749 1049.29C365.139 1026.32 401.441 1003.26 437.832 980.332C457.192 968.127 476.642 956.091 497.077 943.371C497.412 943.15 497.791 942.928 498.127 942.708C498.178 943.09 498.208 943.494 498.26 943.876C503.935 996.486 509.469 1047.59 514.938 1098.67C520.026 1146.09 525.051 1193.54 530.202 1240.95C531.094 1249.25 532.576 1257.25 541.593 1261.24C555.127 1267.21 566.241 1260.46 570.235 1243.2C589.948 1157.86 609.555 1072.5 629.29 987.181C630.086 983.775 629.847 979.84 633.032 976.636L633.075 976.635C643.432 988.984 653.507 1001.06 663.643 1013.08C678.882 1031.17 694.016 1049.33 709.483 1067.19C715.719 1074.39 723.55 1075.96 732.592 1071.72C742.055 1067.31 743.097 1058.85 743.603 1050.21C745.871 1011.52 748.203 972.805 749.874 934.042C750.223 926.003 751.677 924.393 759.452 927.196C791.904 938.865 824.596 949.847 857.046 961.432C866.495 964.792 875.716 965.602 882.762 957.962C889.767 950.367 888.388 941.303 884.449 932.043C871.67 902.261 859.566 872.165 846.765 842.363C843.862 835.592 844.307 833.601 852.217 832.992C908.013 828.765 963.777 824.048 1019.55 819.544C1073.27 815.173 1127 810.929 1180.71 806.451C1194.08 805.312 1200.82 799.001 1201.63 788.076ZM642.882 927.565C635.983 919.311 629.055 910.695 616.434 913.925C606.882 916.34 603.347 923.834 601.314 932.721C587.85 991.418 574.258 1050.07 560.687 1108.71C559.951 1111.92 559.13 1115.14 558.333 1118.46C553.982 1117.3 555.225 1113.91 554.958 1111.53C547.889 1046.38 540.969 981.21 533.963 916.042C533.479 911.623 533.013 907.097 531.64 902.911C527.316 889.868 513.788 886.069 500.45 894.28C478.918 907.493 457.585 920.979 436.164 934.382C416.781 946.524 397.419 958.686 377.97 970.723C374.588 972.782 371.191 975.161 367.184 975.04C392.237 929.496 417.586 883.859 442.461 837.978C450.72 822.792 442.392 809.756 423.918 808.564C383.172 805.883 342.394 803.629 301.632 801.183C273.221 799.496 244.831 797.83 216.399 796.164C216.404 795.419 216.387 794.695 216.371 793.971C259.079 781.866 301.767 769.783 344.475 757.678C360.581 753.11 376.661 748.351 392.856 743.993C402.446 741.408 411.448 738.218 414.203 727.355C417.196 715.719 409.671 708.949 401.833 702.42C378.642 683.103 355.492 663.7 332.364 644.317C330.584 642.825 328.99 641.136 325.92 638.203C352.287 635.273 376.998 632.551 401.729 629.808C408.868 629.004 416.054 628.412 423.211 627.501C441.348 625.123 447.977 614.128 441.471 596.96C429.482 565.392 417.324 533.87 404.707 500.954C432.098 511.121 458.393 520.866 484.688 530.611C486.621 531.334 488.472 532.185 490.384 532.887C512.857 541.314 523.221 534.344 524.52 510.095C527.196 459.38 529.85 408.644 532.696 357.924C532.858 354.789 531.325 351.076 534.863 348.374C538.012 350.091 538.026 353.477 539.044 356.116C556.167 400.751 573.184 445.41 590.265 490.046C591.488 493.255 592.564 496.532 594.145 499.541C601.266 512.882 618.03 514.731 627.299 502.759C647.409 476.734 667.02 450.316 687.086 424.249C688.637 422.189 687.744 418.546 691.86 417.812C694.497 424.163 694.186 431.071 694.976 437.699C698.153 463.932 700.926 490.196 704.039 516.452C706.521 537.44 721.439 544.317 738.748 531.818C785.016 498.373 830.997 464.487 877.068 430.769C893.891 418.473 910.693 406.157 928.364 394.588C910.548 419.388 892.775 444.231 874.917 469.032C848.076 506.247 820.953 543.234 794.48 580.717C783.915 595.658 792.933 611.809 811.809 612.928C859.801 615.782 907.747 618.467 955.695 621.28C959.044 621.479 962.604 620.673 965.783 622.751C965.216 626.875 961.271 626.647 958.889 627.745C919.557 645.95 880.113 663.88 840.735 681.914C835.465 684.337 829.826 686.448 826.163 691.112C818.216 701.307 822.25 715.656 834.513 720.996C838.235 722.593 842.343 723.393 846.327 724.366C911.082 740.231 975.878 756.053 1040.65 771.897C1042.97 772.482 1045.24 773.282 1047.62 773.674C1049.37 773.975 1049.99 774.94 1049.6 776.355C1049.44 776.998 1048.33 777.684 1047.54 777.808C1045.52 778.132 1043.46 778.158 1041.4 778.312C968.529 784.02 895.618 789.687 822.71 795.481C798.238 797.43 792.022 807.862 801.48 830.265C812.47 856.34 823.418 882.415 834.43 908.51C830.985 910.634 828.31 908.204 825.585 907.351C798.289 898.523 771.052 889.503 743.757 880.718C724.852 874.657 714.101 882.34 713.002 902.324C711.286 933.505 709.528 964.688 707.747 995.85C707.609 998.175 708.178 1000.72 705.869 1003.14C684.843 977.889 663.862 952.727 642.882 927.565Z" fill="#1C1A0C"/>
</g>
<defs>
<clipPath id="clip0_205_2">
<rect width="890" height="1055" fill="white" transform="translate(729.534 0.680664) rotate(43.6845)"/>
</clipPath>
</defs>
</svg>
